<svg xmlns="http://www.w3.org/2000/svg" viewBox="0 0 600 150"><defs><style>.cls-1{fill:none;}.cls-2{fill:#5fb2f9;}.cls-3{font-size:63px;fill:#fff;font-family:AvenirNextLTPro-Bold, Avenir Next LT Pro;font-weight:700;}</style></defs><title>ads_h_b_tr</title><g id="Warstwa_2" data-name="Warstwa 2"><g id="background"><rect class="cls-1" width="600" height="150"/></g><g id="logo_flat_h_d"><path class="cls-2" d="M125.47,79.16a12.17,12.17,0,0,1,8.85-3.62h0a12.29,12.29,0,0,1,8.11,2.9V43.1a46.51,46.51,0,0,0-7.26-.57c-.29,0-.56,0-.85,0a47.47,47.47,0,0,0-26.26,7.77A52.5,52.5,0,0,1,112,53.92,47.2,47.2,0,0,1,125.47,79.16Z"/><path class="cls-2" d="M147.32,14.59V89.08c0,.33,0,.66,0,1a13,13,0,0,1-3.75,8.45,12.3,12.3,0,0,1-9.11,3.93h0a12.16,12.16,0,0,1-9.06-3.93,13.12,13.12,0,0,1-3.79-9.45h0c0-.28,0-.56,0-.83a42.67,42.67,0,0,0-5-20.38A47.55,47.55,0,0,0,108,56.34q-1.68-1.7-3.43-3.16a43.6,43.6,0,0,0-28-10.44l-1,0q-20.19,0-33.94,13.35T27.84,89s0,0,0,.08a44.51,44.51,0,0,0,13.74,32.73,45.39,45.39,0,0,0,33.13,13.62A45.29,45.29,0,0,0,100.26,128q-1.64-1.38-3.2-2.92a47.2,47.2,0,0,1-13.81-26,12.51,12.51,0,0,1-17.68-.53,13.13,13.13,0,0,1-3.79-9.47h0a13.18,13.18,0,0,1,3.75-9.51,12.23,12.23,0,0,1,6.69-3.67,13.59,13.59,0,0,1,2.41-.21,12.23,12.23,0,0,1,7.9,2.7c.27.24.54.49.79.76a15.51,15.51,0,0,1,4,7.32,14.83,14.83,0,0,1,.22,2.61h0a48.38,48.38,0,0,0,1,9.6,41.5,41.5,0,0,0,12.25,22.65c1.07,1.07,3.65,3.3,3.82,3.44A44.81,44.81,0,0,0,132,135.34c.8,0,1.6,0,2.41,0h0c10.59,0,22-2.32,33.09-13.57a46,46,0,0,0,13.7-32.75h0v-.23l0-74.23Z"/><text class="cls-3" transform="translate(228.94 109.21)">ADSHARES</text></g></g></svg>